<svg version="1.1" xmlns="http://www.w3.org/2000/svg" viewBox="0 0 707.9930831954987 754.7631188229498" width="707.9930831954987" height="754.7631188229498">
  <!-- svg-source:excalidraw -->
  
  <defs>
    <style class="style-fonts">
      @font-face {
        font-family: "Virgil";
        src: url("https://excalidraw.com/Virgil.woff2");
      }
      @font-face {
        font-family: "Cascadia";
        src: url("https://excalidraw.com/Cascadia.woff2");
      }
    </style>
  </defs>
  <g transform="translate(269.37119430373434 228.21879118415688) rotate(0 84.625347294015 200.02354814949)" stroke="none"><path d="M0.35 -1.87 L1.2 -1.88 L-3.59 -4.65 L-3.79 -9.39 L-4.47 -9.53 L-5.89 -14.72 L-9.71 -19.14 L-11.3 -25.1 L-18.32 -27.54 L-27.02 -34 L-37.06 -41 L-43.6 -47.12 L-48.9 -50.23 L-64.79 -55.78 L-75.54 -60.78 L-92.09 -62.33 L-105.1 -60.79 L-119.4 -61.32 L-137.05 -56.45 L-155.58 -48.97 L-174.84 -39.96 L-190.86 -32.88 L-208.1 -22.96 L-215.87 -12.9 L-232.63 7.5 L-240.2 22.69 L-247.22 42.34 L-251.61 64.62 L-255.41 89.45 L-258.64 114.75 L-260.33 142.3 L-260 175.15 L-256.08 205.53 L-250.38 237.85 L-240.73 266.78 L-229.63 307.46 L-218.93 333.22 L-201.22 368.76 L-183.32 397.65 L-154.74 424.93 L-124.3 451.6 L-99.58 466.88 L-70.02 483.81 L-43.3 491.34 L-10.25 503.76 L18.96 509.38 L52.5 516.32 L78.89 515.85 L108.72 516.74 L141.01 507.99 L165.35 502.23 L187.06 491.6 L218.73 466.6 L241.99 450.09 L271.04 416.21 L298.6 388.19 L315.28 361 L334.9 339.81 L352.47 304.08 L373.32 266.9 L385.86 234.55 L399.93 199.71 L409.54 167.28 L420.62 134.29 L425.6 111.1 L429.9 79.68 L425.16 49.44 L421.92 31.88 L413.99 11.67 L405.42 -11.33 L390.85 -26.82 L380 -42.19 L367.72 -50.9 L351.87 -67.37 L335.65 -82.22 L324.25 -86.36 L303.68 -94.73 L291.61 -104.68 L273.08 -106.32 L260.44 -110.87 L242.94 -113.58 L230.65 -114.1 L212 -113.26 L201.77 -112.36 L184.8 -117.58 L171.17 -118.07 L157.12 -115.97 L145.63 -116.08 L128.76 -111.48 L112.98 -105.25 L100.54 -98.6 L83.64 -86.07 L71.51 -80.04 L53.47 -65.08 L42.15 -53.92 L25.56 -34.4 L16.56 -20 L-0.96 2.78 L-4.75 9.34 L-1.4 0.93" stroke="none" stroke-width="0" fill="#fa5252" fill-rule="evenodd"></path><path fill="#c92a2a" d="M -1.68,0.42 Q -1.68,0.42 -2.53,-2.04 -3.39,-4.50 -4.21,-5.96 -5.04,-7.41 -5.98,-8.61 -6.91,-9.81 -8.66,-12.31 -10.40,-14.81 -11.81,-17.18 -13.22,-19.56 -14.96,-21.65 -16.70,-23.74 -19.87,-26.44 -23.03,-29.14 -26.93,-32.22 -30.82,-35.30 -34.35,-37.86 -37.88,-40.41 -41.82,-42.71 -45.77,-45.01 -51.23,-47.88 -56.69,-50.76 -62.62,-52.54 -68.55,-54.32 -74.86,-55.72 -81.17,-57.12 -88.16,-57.70 -95.14,-58.28 -101.80,-57.90 -108.47,-57.52 -116.93,-56.12 -125.39,-54.71 -133.39,-52.86 -141.39,-51.01 -150.37,-47.73 -159.35,-44.45 -167.55,-40.55 -175.74,-36.65 -184.25,-31.85 -192.76,-27.06 -199.43,-21.93 -206.09,-16.81 -212.63,-9.69 -219.17,-2.56 -224.43,5.42 -229.70,13.41 -233.81,21.80 -237.93,30.18 -241.56,40.62 -245.19,51.06 -248.00,61.78 -250.81,72.50 -252.63,85.19 -254.45,97.87 -255.23,110.18 -256.01,122.49 -256.35,137.82 -256.70,153.15 -255.59,167.80 -254.48,182.44 -252.14,198.76 -249.80,215.07 -246.92,230.20 -244.04,245.33 -239.67,262.47 -235.29,279.60 -230.27,295.06 -225.25,310.51 -218.07,327.12 -210.88,343.72 -202.80,358.30 -194.72,372.88 -183.14,387.82 -171.56,402.76 -157.85,416.01 -144.15,429.25 -131.41,439.27 -118.67,449.29 -103.83,458.56 -89.00,467.83 -75.80,474.25 -62.60,480.68 -46.88,487.15 -31.16,493.63 -17.00,497.58 -2.84,501.53 13.28,505.09 29.40,508.64 43.09,510.15 56.78,511.65 72.04,512.30 87.31,512.94 102.49,511.34 117.67,509.73 130.99,506.55 144.31,503.37 156.86,498.90 169.40,494.43 182.79,486.32 196.18,478.21 208.84,469.09 221.49,459.96 235.00,447.31 248.50,434.65 262.47,420.42 276.43,406.18 287.37,393.23 298.31,380.28 308.01,367.83 317.71,355.39 327.45,340.06 337.19,324.73 347.00,307.48 356.80,290.23 364.74,274.09 372.67,257.96 379.81,240.41 386.95,222.87 393.16,207.18 399.37,191.48 404.51,174.80 409.66,158.11 413.76,144.67 417.86,131.22 420.20,116.83 422.55,102.44 422.91,87.58 423.27,72.72 422.18,60.79 421.08,48.86 418.74,38.20 416.40,27.53 412.91,16.74 409.42,5.95 403.62,-3.47 397.82,-12.90 392.20,-20.74 386.58,-28.57 381.07,-35.01 375.57,-41.45 368.23,-48.56 360.89,-55.68 353.35,-62.50 345.82,-69.33 338.94,-74.04 332.06,-78.74 324.12,-83.27 316.18,-87.79 309.01,-91.62 301.84,-95.45 293.89,-98.29 285.94,-101.12 278.80,-102.96 271.67,-104.79 263.63,-106.20 255.59,-107.62 248.35,-108.86 241.10,-110.10 233.09,-110.62 225.08,-111.14 217.87,-111.36 210.66,-111.58 203.08,-112.31 195.50,-113.05 188.58,-113.35 181.66,-113.65 174.30,-113.78 166.94,-113.91 160.77,-113.34 154.60,-112.77 147.54,-111.90 140.48,-111.03 133.23,-108.80 125.99,-106.57 119.15,-103.74 112.30,-100.91 104.41,-96.59 96.52,-92.27 90.05,-87.93 83.58,-83.60 75.83,-77.36 68.08,-71.12 61.64,-65.33 55.20,-59.54 47.41,-52.04 39.63,-44.54 33.19,-37.03 26.75,-29.53 19.37,-20.21 11.99,-10.89 6.00,-4.79 0.01,1.31 -0.19,1.28 -0.40,1.24 -0.59,1.15 -0.78,1.05 -0.93,0.89 -1.08,0.74 -1.17,0.55 -1.26,0.36 -1.28,0.15 -1.31,-0.06 -1.26,-0.26 -1.22,-0.47 -1.11,-0.65 -1.00,-0.84 -0.84,-0.98 -0.68,-1.11 -0.48,-1.19 -0.29,-1.28 -0.08,-1.29 0.13,-1.30 0.33,-1.25 0.54,-1.19 0.71,-1.07 0.89,-0.96 1.02,-0.79 1.15,-0.62 1.22,-0.42 1.29,-0.22 1.29,-0.01 1.29,0.20 1.23,0.40 1.16,0.60 1.03,0.77 0.91,0.94 0.73,1.06 0.56,1.18 0.35,1.24 0.15,1.30 -0.05,1.29 -0.27,1.28 -0.46,1.20 -0.66,1.13 -0.83,0.99 -0.99,0.85 -1.10,0.67 -1.21,0.49 -1.26,0.28 -1.31,0.08 -1.28,-0.12 -1.26,-0.34 -1.18,-0.53 -1.09,-0.72 -0.94,-0.88 -0.80,-1.03 -0.61,-1.14 -0.42,-1.24 -0.22,-1.27 -0.01,-1.31 -0.01,-1.31 -0.01,-1.31 4.60,-7.14 9.22,-12.97 16.20,-22.77 23.17,-32.57 29.70,-40.32 36.22,-48.06 44.07,-55.63 51.91,-63.20 58.46,-69.07 65.01,-74.94 72.95,-81.28 80.89,-87.62 87.55,-92.06 94.21,-96.50 102.34,-100.93 110.47,-105.36 117.53,-108.25 124.60,-111.14 132.24,-113.45 139.88,-115.76 147.02,-116.64 154.16,-117.52 160.59,-118.10 167.02,-118.68 174.45,-118.55 181.87,-118.42 188.91,-118.10 195.96,-117.79 203.38,-117.07 210.81,-116.35 218.10,-116.12 225.39,-115.90 233.65,-115.36 241.91,-114.83 249.16,-113.60 256.42,-112.37 264.65,-110.93 272.87,-109.50 280.22,-107.61 287.57,-105.72 295.86,-102.76 304.15,-99.81 311.39,-95.96 318.63,-92.11 326.76,-87.50 334.89,-82.88 342.04,-77.97 349.19,-73.07 356.81,-66.19 364.43,-59.32 371.94,-52.04 379.45,-44.77 385.09,-38.16 390.73,-31.55 396.46,-23.56 402.20,-15.57 408.25,-5.61 414.30,4.34 417.87,15.38 421.45,26.43 423.84,37.41 426.23,48.38 427.34,60.61 428.45,72.84 428.06,88.06 427.67,103.27 425.28,118.01 422.88,132.74 418.80,146.21 414.71,159.67 409.52,176.56 404.33,193.44 398.11,209.16 391.89,224.89 384.66,242.60 377.44,260.31 369.40,276.57 361.37,292.83 351.45,310.16 341.53,327.50 331.62,343.01 321.71,358.51 311.94,371.03 302.17,383.55 291.10,396.63 280.02,409.71 265.97,424.01 251.92,438.31 238.17,451.16 224.42,464.01 211.61,473.27 198.80,482.52 184.98,490.90 171.16,499.27 158.34,503.86 145.52,508.44 131.87,511.69 118.22,514.94 102.66,516.57 87.09,518.21 71.64,517.54 56.20,516.88 42.23,515.31 28.26,513.74 12.02,510.06 -4.21,506.38 -18.61,502.24 -33.01,498.09 -48.82,491.46 -64.62,484.82 -78.01,478.25 -91.40,471.67 -106.42,462.24 -121.44,452.81 -134.34,442.62 -147.23,432.44 -161.14,418.95 -175.04,405.47 -186.78,390.23 -198.53,374.99 -206.67,360.21 -214.81,345.42 -222.01,328.61 -229.21,311.80 -234.25,296.21 -239.28,280.62 -243.69,263.37 -248.11,246.11 -251.04,230.89 -253.97,215.67 -256.37,199.22 -258.78,182.77 -259.92,167.92 -261.06,153.06 -260.74,137.63 -260.42,122.21 -259.64,109.72 -258.87,97.24 -257.02,84.30 -255.18,71.36 -252.34,60.46 -249.50,49.56 -245.79,38.86 -242.07,28.15 -237.84,19.50 -233.60,10.85 -228.12,2.55 -222.65,-5.74 -215.82,-13.16 -208.99,-20.57 -202.04,-25.88 -195.09,-31.19 -186.43,-36.06 -177.78,-40.93 -169.37,-44.91 -160.97,-48.89 -151.72,-52.26 -142.46,-55.62 -134.31,-57.51 -126.16,-59.39 -117.45,-60.83 -108.73,-62.27 -101.74,-62.64 -94.75,-63.02 -87.44,-62.39 -80.14,-61.75 -73.66,-60.30 -67.17,-58.85 -60.83,-56.91 -54.50,-54.96 -48.94,-52.03 -43.38,-49.11 -39.23,-46.68 -35.09,-44.26 -31.48,-41.64 -27.88,-39.03 -23.90,-35.89 -19.93,-32.75 -16.47,-29.76 -13.02,-26.76 -11.09,-24.35 -9.15,-21.95 -7.85,-19.69 -6.56,-17.44 -4.91,-14.99 -3.26,-12.54 -2.17,-11.03 -1.08,-9.51 -0.10,-7.56 0.86,-5.60 1.27,-3.01 1.68,-0.42 1.70,-0.21 1.73,-0.00 1.71,0.20 1.68,0.40 1.61,0.60 1.53,0.80 1.42,0.97 1.30,1.14 1.14,1.28 0.99,1.42 0.80,1.52 0.62,1.62 0.41,1.67 0.21,1.72 0.00,1.72 -0.20,1.72 -0.40,1.67 -0.60,1.62 -0.79,1.52 -0.98,1.43 -1.13,1.29 -1.29,1.15 -1.41,0.98 -1.53,0.81 -1.60,0.61 -1.68,0.42 -1.68,0.42 L -1.68,0.42 Z"></path></g><g transform="translate(264.3084390499466 220.95797496169337) rotate(0 -102.20983504342075 -32.97091453013576)" stroke="none"><path d="M-0.37 0.52 L-0.84 2.93 L-3.01 -0.61 L-3.78 -2.54 L-9.44 -6 L-11.97 -5.29 L-15.66 -12.71 L-18.78 -14.59 L-22.43 -17.21 L-24.19 -18.74 L-24.73 -20.22 L-32.52 -22.26 L-32.46 -25.86 L-38.7 -27.28 L-45.73 -30.08 L-49.61 -30.98 L-54.41 -35.88 L-60.91 -38.75 L-62.96 -38.45 L-70.04 -43.41 L-74.8 -44.43 L-77.42 -47.4 L-84.94 -50.07 L-87.82 -50.79 L-93.54 -55.46 L-98.02 -57.47 L-106.55 -59.69 L-113.56 -62.37 L-118.71 -64.3 L-123.94 -64.62 L-130.51 -69.46 L-135.05 -68.59 L-143.62 -69.73 L-149.96 -66.48 L-159.71 -69.32 L-165.1 -66.31 L-176.78 -67.87 L-179.49 -65.32 L-186.26 -64.43 L-186.32 -64.97 L-187.31 -66.28 L-191.95 -65.77 L-191.48 -67.72 L-199.12 -64.02 L-200.5 -66.89 L-202.13 -65.67 L-205.86 -67.55 L-201.89 -66.3 L-201.25 -64.86 L-197.85 -60.49 L-193.92 -55.66 L-185.46 -51.47 L-178.29 -44.55 L-163.12 -39.67 L-153.57 -34.21 L-141.63 -31.56 L-131.11 -26.69 L-120.53 -22.84 L-106.09 -19.52 L-97.17 -16.63 L-89.8 -15.82 L-81.26 -14.06 L-73.17 -10.15 L-66.89 -9.51 L-61.25 -4.9 L-50.32 -7.37 L-45.31 -6.25 L-36.59 -3.06 L-29.77 -1.65 L-22.72 1.58 L-16.83 1.64 L-12.29 -0.51 L-7.67 0.55 L0.55 0.16" stroke="none" stroke-width="0" fill="#40c057" fill-rule="evenodd"></path><path fill="#2b8a3e" d="M -0.77,1.54 Q -0.77,1.54 -2.16,1.17 -3.56,0.80 -5.37,-0.08 -7.18,-0.97 -8.75,-2.07 -10.32,-3.16 -12.29,-4.93 -14.26,-6.69 -15.71,-8.05 -17.15,-9.41 -18.85,-10.47 -20.55,-11.54 -22.08,-12.75 -23.61,-13.97 -24.90,-15.13 -26.19,-16.29 -27.81,-17.26 -29.42,-18.24 -30.93,-19.42 -32.45,-20.60 -34.87,-22.29 -37.30,-23.98 -39.54,-25.29 -41.79,-26.60 -44.00,-27.79 -46.20,-28.98 -48.93,-30.07 -51.66,-31.16 -54.18,-32.30 -56.71,-33.44 -59.05,-34.56 -61.39,-35.68 -63.65,-36.79 -65.91,-37.90 -68.66,-38.95 -71.42,-40.01 -73.45,-41.20 -75.48,-42.38 -77.99,-43.40 -80.51,-44.42 -82.96,-45.54 -85.41,-46.65 -88.44,-48.44 -91.48,-50.23 -93.95,-51.57 -96.41,-52.92 -99.25,-54.07 -102.08,-55.22 -105.19,-56.36 -108.30,-57.49 -111.69,-59.31 -115.08,-61.13 -118.04,-61.76 -121.01,-62.40 -123.80,-63.38 -126.59,-64.37 -129.36,-64.72 -132.13,-65.07 -135.22,-65.22 -138.30,-65.38 -142.14,-65.46 -145.97,-65.53 -149.51,-65.56 -153.04,-65.59 -157.06,-65.60 -161.09,-65.62 -165.33,-65.62 -169.56,-65.63 -172.38,-65.03 -175.20,-64.42 -177.89,-64.14 -180.58,-63.85 -182.35,-63.73 -184.12,-63.62 -185.52,-63.56 -186.92,-63.51 -188.16,-63.49 -189.39,-63.47 -190.55,-63.46 -191.71,-63.45 -193.47,-63.45 -195.23,-63.45 -196.60,-63.44 -197.98,-63.44 -199.20,-63.44 -200.42,-63.44 -201.57,-63.44 -202.71,-63.44 -203.01,-63.47 -203.31,-63.51 -203.59,-63.62 -203.88,-63.72 -204.12,-63.89 -204.37,-64.07 -204.57,-64.29 -204.77,-64.52 -204.91,-64.78 -205.05,-65.05 -205.12,-65.34 -205.20,-65.63 -205.20,-65.94 -205.20,-66.24 -205.12,-66.53 -205.05,-66.82 -204.91,-67.09 -204.77,-67.36 -204.57,-67.58 -204.37,-67.81 -204.13,-67.98 -203.88,-68.15 -203.60,-68.26 -203.32,-68.36 -203.02,-68.40 -202.72,-68.44 -201.03,-67.46 -199.35,-66.49 -198.22,-64.72 -197.10,-62.94 -195.72,-61.98 -194.35,-61.01 -191.13,-58.58 -187.90,-56.15 -184.67,-53.88 -181.43,-51.61 -176.36,-48.80 -171.30,-46.00 -165.43,-43.58 -159.56,-41.16 -153.86,-38.84 -148.16,-36.53 -143.16,-34.27 -138.16,-32.00 -132.45,-30.49 -126.75,-28.98 -121.00,-27.02 -115.25,-25.06 -110.37,-23.62 -105.48,-22.18 -100.29,-20.94 -95.10,-19.71 -90.92,-18.54 -86.74,-17.36 -82.47,-16.25 -78.21,-15.14 -74.45,-14.03 -70.68,-12.93 -67.19,-11.83 -63.69,-10.73 -59.93,-10.33 -56.16,-9.93 -52.42,-9.07 -48.67,-8.22 -45.18,-7.22 -41.69,-6.22 -38.54,-5.84 -35.39,-5.46 -31.93,-4.59 -28.47,-3.73 -25.35,-3.28 -22.23,-2.83 -19.01,-2.39 -15.79,-1.96 -13.77,-1.79 -11.75,-1.63 -5.87,-1.47 0.01,-1.31 0.21,-1.27 0.42,-1.24 0.61,-1.14 0.80,-1.03 0.94,-0.88 1.09,-0.72 1.18,-0.53 1.26,-0.34 1.28,-0.13 1.31,0.08 1.26,0.28 1.21,0.49 1.10,0.67 0.99,0.85 0.83,0.99 0.66,1.13 0.47,1.20 0.27,1.28 0.05,1.29 -0.15,1.30 -0.35,1.24 -0.56,1.18 -0.73,1.06 -0.91,0.94 -1.03,0.77 -1.16,0.60 -1.23,0.40 -1.29,0.20 -1.29,-0.01 -1.29,-0.22 -1.22,-0.42 -1.15,-0.62 -1.02,-0.79 -0.89,-0.96 -0.71,-1.07 -0.54,-1.19 -0.33,-1.25 -0.13,-1.30 0.08,-1.29 0.29,-1.28 0.48,-1.20 0.68,-1.11 0.84,-0.98 1.00,-0.84 1.11,-0.65 1.22,-0.47 1.26,-0.26 1.31,-0.06 1.28,0.15 1.26,0.36 1.17,0.55 1.08,0.74 0.93,0.89 0.78,1.05 0.59,1.14 0.40,1.24 0.19,1.28 -0.01,1.31 -0.01,1.31 -0.01,1.31 -5.92,1.38 -11.84,1.44 -13.89,1.48 -15.94,1.53 -19.33,1.67 -22.71,1.81 -26.20,1.57 -29.70,1.33 -32.88,0.58 -36.05,-0.17 -39.61,-0.62 -43.16,-1.08 -46.52,-2.05 -49.88,-3.02 -53.33,-3.83 -56.78,-4.64 -61.03,-5.17 -65.27,-5.71 -68.72,-6.82 -72.18,-7.93 -75.85,-9.05 -79.52,-10.16 -83.82,-11.30 -88.12,-12.44 -92.20,-13.60 -96.28,-14.75 -101.60,-16.02 -106.92,-17.29 -111.91,-18.76 -116.90,-20.23 -122.49,-22.15 -128.07,-24.07 -134.16,-25.73 -140.24,-27.39 -145.15,-29.63 -150.05,-31.87 -155.77,-34.19 -161.48,-36.52 -167.60,-39.07 -173.72,-41.62 -179.02,-44.56 -184.31,-47.50 -187.61,-49.83 -190.92,-52.16 -194.16,-54.62 -197.40,-57.07 -199.34,-58.67 -201.28,-60.27 -202.00,-61.86 -202.71,-63.44 -203.01,-63.47 -203.31,-63.51 -203.59,-63.62 -203.88,-63.72 -204.12,-63.89 -204.37,-64.07 -204.57,-64.29 -204.77,-64.52 -204.91,-64.78 -205.05,-65.05 -205.12,-65.34 -205.20,-65.63 -205.20,-65.94 -205.20,-66.24 -205.13,-66.53 -205.05,-66.82 -204.91,-67.09 -204.77,-67.36 -204.57,-67.58 -204.37,-67.81 -204.13,-67.98 -203.88,-68.15 -203.60,-68.26 -203.32,-68.36 -203.02,-68.40 -202.72,-68.44 -201.57,-68.44 -200.42,-68.44 -199.20,-68.44 -197.99,-68.44 -196.61,-68.44 -195.24,-68.43 -193.49,-68.44 -191.75,-68.45 -190.61,-68.46 -189.48,-68.47 -188.29,-68.49 -187.10,-68.51 -185.77,-68.55 -184.45,-68.59 -182.77,-68.70 -181.10,-68.81 -178.65,-69.06 -176.20,-69.31 -172.89,-69.97 -169.58,-70.62 -165.33,-70.62 -161.08,-70.61 -157.03,-70.60 -152.99,-70.59 -149.44,-70.56 -145.88,-70.53 -141.96,-70.45 -138.03,-70.38 -134.75,-70.20 -131.48,-70.01 -128.20,-69.55 -124.93,-69.10 -122.41,-68.19 -119.89,-67.28 -116.31,-66.42 -112.74,-65.56 -109.65,-63.88 -106.57,-62.20 -103.37,-61.04 -100.17,-59.88 -97.09,-58.60 -94.00,-57.33 -91.46,-55.94 -88.92,-54.55 -86.12,-52.87 -83.32,-51.20 -80.97,-50.12 -78.61,-49.04 -75.77,-47.85 -72.93,-46.67 -71.27,-45.66 -69.61,-44.65 -66.66,-43.51 -63.72,-42.36 -61.48,-41.26 -59.24,-40.16 -56.95,-39.07 -54.66,-37.97 -52.23,-36.87 -49.80,-35.78 -46.82,-34.57 -43.85,-33.36 -41.55,-32.13 -39.26,-30.89 -36.86,-29.47 -34.47,-28.04 -31.92,-26.26 -29.37,-24.49 -28.09,-23.46 -26.82,-22.44 -24.86,-21.20 -22.89,-19.96 -21.71,-18.88 -20.52,-17.81 -19.20,-16.73 -17.88,-15.66 -15.84,-14.31 -13.80,-12.96 -12.40,-11.61 -11.01,-10.27 -9.26,-8.64 -7.52,-7.01 -6.30,-6.08 -5.07,-5.15 -3.28,-4.24 -1.49,-3.33 -0.36,-2.43 0.77,-1.54 0.94,-1.42 1.11,-1.31 1.25,-1.15 1.39,-1.00 1.49,-0.82 1.59,-0.64 1.65,-0.44 1.70,-0.24 1.71,-0.03 1.71,0.17 1.66,0.37 1.62,0.57 1.53,0.76 1.43,0.95 1.30,1.10 1.16,1.26 0.99,1.38 0.83,1.51 0.63,1.58 0.44,1.66 0.23,1.69 0.03,1.72 -0.17,1.70 -0.37,1.68 -0.57,1.61 -0.77,1.54 -0.77,1.54 L -0.77,1.54 Z"></path></g><g transform="translate(262.1103780812709 231.94827980507193) rotate(0 -62.644737607257866 45.06024985785217)" stroke="none"><path d="M-0.69 -1.79 L-0.34 1.94 L-5.65 0.66 L-5.46 0.4 L-11.57 4.16 L-15.42 3.61 L-17.91 4.92 L-22.47 10.79 L-30.31 10.32 L-33.85 12.88 L-41.39 14.12 L-44.75 13.85 L-53.13 13.86 L-59.15 16 L-66.9 18.23 L-70.8 23.64 L-73.43 25.92 L-78.22 27.82 L-82.85 31.78 L-86.52 33.6 L-91.02 37.06 L-92.77 40.4 L-98.63 43.95 L-100.62 44.6 L-104.5 50.43 L-106.49 54.38 L-111.85 56.87 L-112.59 58.48 L-114.07 60.59 L-117.49 61.83 L-117.32 64.51 L-120.55 68.11 L-119.74 68.5 L-125.08 73.19 L-126.43 76.61 L-127.19 75.33 L-126.1 77.09 L-129.15 80.93 L-130.4 80.94 L-129.62 83.19 L-128.77 79.34 L-127.22 83.49 L-123.82 81.84 L-125.74 85.56 L-122.14 86.58 L-122.77 87.52 L-118.3 89.27 L-112.27 89.87 L-105.82 89.18 L-100.94 89.29 L-96.44 86.78 L-91.89 87 L-84.43 83.89 L-78.4 82.64 L-74.25 82.13 L-70.12 80.39 L-62.74 75.67 L-59.26 72.23 L-51.11 62.87 L-47.84 59.1 L-40.96 51.06 L-34.63 46.12 L-23.66 32.76 L-16.58 24.39 L-12.52 19.03 L-3.81 10.76 L4.33 0.95 L0.79 1.49" stroke="none" stroke-width="0" fill="#40c057" fill-rule="evenodd"></path><path fill="#2b8a3e" d="M 0.54,1.64 Q 0.54,1.64 -1.28,2.45 -3.12,3.25 -5.10,4.14 -7.08,5.03 -9.45,5.51 -11.82,6.00 -13.81,6.76 -15.79,7.53 -17.91,8.48 -20.03,9.44 -22.47,9.93 -24.90,10.43 -27.63,11.21 -30.35,12.00 -33.42,12.97 -36.49,13.94 -39.23,14.40 -41.97,14.85 -44.85,15.64 -47.72,16.42 -50.85,17.39 -53.98,18.36 -57.20,19.40 -60.43,20.45 -62.98,21.49 -65.53,22.54 -67.68,24.13 -69.83,25.73 -72.19,27.15 -74.54,28.58 -76.63,30.32 -78.71,32.07 -81.04,33.57 -83.36,35.07 -84.84,36.24 -86.32,37.41 -88.36,38.64 -90.40,39.86 -91.56,41.37 -92.73,42.88 -94.02,44.30 -95.30,45.71 -97.12,47.59 -98.94,49.48 -100.35,50.90 -101.75,52.33 -103.78,53.71 -105.81,55.08 -106.97,56.63 -108.13,58.18 -109.40,59.63 -110.68,61.07 -111.87,62.32 -113.05,63.57 -114.19,64.73 -115.32,65.90 -116.42,67.00 -117.52,68.10 -118.74,70.22 -119.95,72.34 -120.99,73.49 -122.02,74.64 -123.45,76.35 -124.89,78.06 -126.06,79.25 -127.22,80.45 -126.12,80.84 -125.02,81.23 -124.28,82.45 -123.54,83.68 -122.47,84.40 -121.40,85.12 -120.05,85.21 -118.70,85.29 -116.46,86.06 -114.22,86.83 -112.35,87.07 -110.47,87.31 -107.81,87.43 -105.15,87.54 -103.01,86.99 -100.88,86.45 -97.77,86.17 -94.67,85.90 -92.38,85.21 -90.10,84.52 -87.17,83.58 -84.23,82.64 -81.80,81.64 -79.36,80.64 -76.36,79.56 -73.35,78.47 -71.08,76.89 -68.82,75.30 -66.58,73.38 -64.35,71.47 -61.51,68.76 -58.66,66.06 -56.18,63.64 -53.70,61.23 -50.76,58.30 -47.81,55.38 -44.66,52.24 -41.52,49.10 -37.08,44.03 -32.64,38.95 -28.80,34.85 -24.97,30.75 -21.44,27.11 -17.90,23.48 -13.82,19.45 -9.74,15.42 -5.97,11.52 -2.19,7.61 -1.75,3.73 -1.30,-0.14 -1.24,-0.34 -1.19,-0.55 -1.07,-0.72 -0.95,-0.90 -0.78,-1.03 -0.61,-1.16 -0.41,-1.22 -0.21,-1.29 0.00,-1.29 0.21,-1.29 0.41,-1.22 0.61,-1.15 0.78,-1.03 0.95,-0.90 1.07,-0.72 1.19,-0.55 1.24,-0.34 1.30,-0.14 1.29,0.07 1.28,0.28 1.20,0.48 1.12,0.67 0.98,0.84 0.84,1.00 0.66,1.11 0.48,1.22 0.27,1.26 0.06,1.31 -0.14,1.28 -0.35,1.26 -0.54,1.17 -0.73,1.08 -0.89,0.93 -1.04,0.79 -1.14,0.60 -1.24,0.41 -1.27,0.20 -1.31,-0.00 -1.27,-0.21 -1.24,-0.42 -1.14,-0.60 -1.04,-0.79 -0.89,-0.94 -0.73,-1.08 -0.54,-1.17 -0.34,-1.26 -0.13,-1.28 0.07,-1.31 0.28,-1.26 0.48,-1.21 0.66,-1.10 0.85,-0.99 0.98,-0.83 1.12,-0.67 1.20,-0.47 1.28,-0.28 1.29,-0.06 1.30,0.14 1.30,0.14 1.30,0.14 0.81,4.75 0.33,9.36 -3.10,13.97 -6.54,18.58 -10.50,22.69 -14.46,26.80 -17.95,30.42 -21.45,34.04 -25.23,38.09 -29.01,42.13 -33.57,47.31 -38.13,52.49 -41.29,55.64 -44.44,58.78 -47.41,61.71 -50.37,64.64 -52.87,67.09 -55.37,69.53 -58.31,72.31 -61.25,75.10 -63.69,77.17 -66.13,79.24 -68.91,81.09 -71.70,82.94 -74.63,84.00 -77.55,85.06 -80.17,86.13 -82.78,87.19 -85.77,88.14 -88.76,89.10 -91.51,89.88 -94.25,90.66 -97.02,90.88 -99.79,91.10 -102.55,91.70 -105.31,92.31 -108.23,92.17 -111.14,92.03 -113.48,91.68 -115.81,91.32 -117.52,90.67 -119.22,90.03 -121.21,89.77 -123.20,89.51 -124.58,88.78 -125.96,88.06 -126.82,86.45 -127.68,84.84 -128.65,84.20 -129.61,83.56 -130.15,82.57 -130.69,81.58 -129.77,79.11 -128.85,76.65 -127.75,75.41 -126.66,74.18 -126.15,72.87 -125.63,71.56 -124.70,70.51 -123.76,69.46 -123.07,68.60 -122.38,67.74 -121.68,66.30 -120.98,64.86 -119.86,63.71 -118.74,62.57 -117.63,61.43 -116.51,60.29 -115.38,59.10 -114.25,57.90 -113.06,56.56 -111.86,55.21 -110.18,53.19 -108.50,51.16 -106.82,50.07 -105.13,48.98 -103.75,47.57 -102.36,46.16 -100.59,44.34 -98.82,42.52 -97.61,41.18 -96.39,39.85 -94.65,37.84 -92.91,35.84 -91.09,34.75 -89.26,33.66 -87.59,32.37 -85.93,31.07 -83.83,29.74 -81.73,28.41 -79.35,26.47 -76.97,24.53 -74.77,23.23 -72.57,21.93 -69.95,20.08 -67.32,18.23 -64.59,17.12 -61.86,16.01 -58.60,14.96 -55.34,13.92 -52.14,12.93 -48.93,11.95 -45.82,11.12 -42.71,10.29 -40.29,9.92 -37.87,9.54 -34.74,8.56 -31.61,7.58 -28.68,6.76 -25.75,5.93 -23.80,5.60 -21.85,5.27 -19.59,4.28 -17.33,3.30 -14.97,2.48 -12.61,1.65 -10.69,1.37 -8.77,1.09 -6.61,0.18 -4.45,-0.73 -2.50,-1.19 -0.54,-1.64 -0.34,-1.69 -0.13,-1.73 0.07,-1.72 0.27,-1.71 0.48,-1.65 0.68,-1.59 0.86,-1.49 1.04,-1.38 1.19,-1.24 1.34,-1.09 1.45,-0.92 1.57,-0.74 1.63,-0.54 1.70,-0.34 1.72,-0.13 1.73,0.07 1.70,0.27 1.66,0.48 1.58,0.67 1.50,0.86 1.37,1.03 1.25,1.20 1.09,1.33 0.92,1.46 0.73,1.55 0.54,1.64 0.54,1.64 L 0.54,1.64 Z"></path></g><g transform="translate(277.4968048620009 227.55215786772044) rotate(0 23.079640171095008 59.34764615424433)" stroke="none"><path d="M1.62 -1.48 L0.81 0.5 L-1.13 5.79 L-0.66 6.71 L1.23 13.14 L-0.24 16.35 L-3.04 20.05 L-0.85 26.86 L-5.64 39.35 L-5.38 45.08 L-2.65 53.06 L-5.09 59.42 L-0.7 65.99 L0.37 70.85 L1.16 77.7 L6.6 84.95 L7.54 89.74 L12.82 93.64 L18.67 98.03 L22.24 99.22 L25.99 103.45 L27.15 102.38 L33.38 106.69 L36.23 110.57 L39.54 108.97 L42.78 110.63 L45.4 114.33 L48.95 116.96 L51.1 116.35 L51.31 119.34 L52.42 115.41 L48.63 113.94 L49.17 112.05 L49.92 108.08 L46.95 101.2 L44.84 90.28 L46.23 80.14 L47.43 69.01 L45.68 52.55 L35.98 30.54 L28.2 17.27 L17.23 0.68 L14.72 1.1 L0.88 -0.98" stroke="none" stroke-width="0" fill="#40c057" fill-rule="evenodd"></path><path fill="#2b8a3e" d="M 1.67,1.12 Q 1.67,1.12 1.83,1.89 2.00,3.79 2.04,6.49 2.08,9.19 2.10,11.61 2.11,14.03 1.46,16.60 0.80,19.16 0.58,21.85 0.36,24.53 -0.38,28.39 -1.12,32.25 -1.41,35.63 -1.70,39.00 -1.82,42.95 -1.94,46.90 -1.99,50.47 -2.05,54.05 -1.45,57.26 -0.85,60.47 0.02,63.73 0.89,66.99 1.90,70.25 2.91,73.52 4.48,75.92 6.05,78.33 7.48,81.48 8.90,84.64 10.53,86.25 12.16,87.85 14.19,89.92 16.23,91.98 18.21,93.38 20.20,94.77 21.91,96.85 23.62,98.93 25.15,99.43 26.67,99.94 29.02,101.68 31.37,103.42 33.41,104.64 35.46,105.86 36.80,106.30 38.14,106.73 39.70,107.73 41.26,108.72 42.99,109.65 44.71,110.59 46.25,111.73 47.79,112.87 48.84,113.25 49.88,113.64 50.27,114.35 50.66,115.07 50.93,115.21 51.21,115.35 51.44,115.55 51.68,115.75 51.85,116.01 52.03,116.26 52.15,116.55 52.26,116.83 52.30,117.14 52.34,117.44 52.31,117.75 52.27,118.06 52.17,118.35 52.06,118.64 51.89,118.89 51.72,119.15 51.49,119.36 51.26,119.56 50.99,119.71 50.71,119.86 50.42,119.93 50.12,120.01 49.81,120.02 49.50,120.02 49.20,119.95 48.90,119.88 48.51,118.71 48.13,117.55 47.15,115.82 46.17,114.10 46.04,112.21 45.91,110.32 45.87,107.66 45.82,105.00 45.18,100.91 44.54,96.81 44.25,92.36 43.96,87.91 43.84,82.85 43.71,77.79 43.03,70.06 42.35,62.33 40.21,52.87 38.07,43.40 34.75,35.72 31.43,28.04 27.17,20.88 22.92,13.73 19.90,10.13 16.88,6.53 8.25,3.89 -0.37,1.25 -0.57,1.16 -0.76,1.07 -0.91,0.92 -1.06,0.77 -1.15,0.58 -1.25,0.39 -1.28,0.18 -1.31,-0.02 -1.27,-0.23 -1.23,-0.44 -1.13,-0.63 -1.02,-0.81 -0.86,-0.96 -0.71,-1.10 -0.51,-1.18 -0.32,-1.27 -0.11,-1.29 0.10,-1.30 0.30,-1.25 0.51,-1.20 0.69,-1.09 0.87,-0.98 1.00,-0.81 1.14,-0.65 1.21,-0.45 1.28,-0.25 1.29,-0.04 1.30,0.17 1.24,0.37 1.17,0.57 1.05,0.75 0.93,0.92 0.76,1.04 0.58,1.17 0.38,1.23 0.18,1.30 -0.02,1.29 -0.24,1.29 -0.44,1.21 -0.64,1.14 -0.80,1.01 -0.97,0.88 -1.08,0.70 -1.20,0.52 -1.25,0.31 -1.30,0.11 -1.29,-0.09 -1.27,-0.31 -1.19,-0.50 -1.10,-0.70 -0.96,-0.86 -0.82,-1.01 -0.64,-1.12 -0.45,-1.23 -0.24,-1.27 -0.04,-1.31 0.16,-1.28 0.37,-1.25 0.37,-1.25 0.37,-1.25 9.71,1.52 19.04,4.30 22.48,8.04 25.92,11.78 30.93,18.91 35.93,26.05 39.52,34.15 43.11,42.24 45.34,52.06 47.57,61.87 48.26,69.77 48.94,77.67 49.05,82.62 49.17,87.58 49.43,91.80 49.69,96.03 50.35,100.47 51.01,104.91 51.04,107.46 51.08,110.02 51.14,111.46 51.21,112.90 50.93,113.99 50.66,115.07 50.93,115.21 51.21,115.35 51.44,115.55 51.68,115.75 51.85,116.01 52.03,116.26 52.15,116.54 52.26,116.83 52.30,117.14 52.34,117.44 52.31,117.75 52.27,118.06 52.17,118.35 52.06,118.64 51.89,118.89 51.72,119.15 51.49,119.36 51.26,119.56 50.99,119.71 50.71,119.86 50.42,119.93 50.12,120.01 49.81,120.02 49.50,120.02 49.20,119.95 48.90,119.88 48.24,118.95 47.59,118.02 46.18,117.50 44.77,116.98 43.51,116.01 42.24,115.04 40.34,113.97 38.44,112.90 37.43,112.16 36.41,111.41 34.66,110.73 32.91,110.05 30.67,108.64 28.42,107.23 26.61,105.75 24.80,104.27 22.49,103.16 20.18,102.04 18.81,100.30 17.44,98.56 15.17,96.92 12.89,95.28 10.83,93.19 8.77,91.09 6.73,88.86 4.68,86.62 3.40,83.72 2.12,80.81 0.31,77.86 -1.50,74.91 -2.51,71.54 -3.53,68.16 -4.43,64.72 -5.33,61.27 -5.95,57.63 -6.57,53.99 -6.50,50.37 -6.44,46.74 -6.29,42.67 -6.15,38.60 -5.80,35.00 -5.45,31.39 -4.71,27.76 -3.96,24.13 -3.65,21.08 -3.33,18.03 -2.72,16.01 -2.11,13.99 -2.10,11.59 -2.08,9.19 -2.04,6.49 -2.00,3.79 -1.83,1.89 -1.67,-1.12 -1.64,-0.20 -1.62,-0.40 -1.55,-0.58 -1.48,-0.77 -1.36,-0.94 -1.25,-1.10 -1.10,-1.24 -0.95,-1.37 -0.77,-1.47 -0.59,-1.56 -0.39,-1.61 -0.20,-1.66 0.00,-1.66 0.20,-1.66 0.39,-1.61 0.59,-1.56 0.77,-1.47 0.95,-1.37 1.10,-1.24 1.25,-1.10 1.36,-0.94 1.48,-0.77 1.55,-0.58 1.62,-0.40 1.64,-0.19 1.67,0.00 1.67,0.00 L 1.67,1.12 Z"></path></g><g transform="translate(295.08129261140664 218.75991399301768) rotate(0 56.05055470123074 12.089335327716412)" stroke="none"><path d="M1.42 0.88 L1.71 1.05 L1.44 1.41 L4.56 0.21 L3.64 4.46 L4.7 7.31 L9.24 11.78 L15.72 12.52 L19.2 15.95 L24.4 19.42 L28.9 25.56 L34.47 25.43 L38.26 26.65 L37.87 27.18 L45.59 31.06 L49.68 31.94 L57.77 34.66 L62.56 35.59 L67.65 36.16 L73.38 36.24 L80.68 38.28 L81.74 39.24 L86.45 37.57 L91.85 40.14 L97.35 38.2 L100.06 41.33 L105.94 41.37 L109.12 39.42 L112.94 38.52 L115.76 40.45 L115.67 36.28 L119.87 35.88 L120 35.53 L123.32 35.4 L121.79 35.97 L119.74 33.33 L117.08 29.34 L118.37 26.59 L115.28 25.17 L111.8 21.16 L107.35 18.04 L103.78 15.01 L103.06 11.35 L97.88 7.56 L91.94 4.73 L86.2 4.05 L78.7 -1.78 L73.44 -1.27 L72.22 -4.51 L66.67 -5.7 L61.15 -8.54 L56.73 -9.53 L49.32 -13.16 L45.65 -13.03 L40.35 -13.63 L39.21 -15.03 L34.41 -16.55 L27.78 -15.15 L23.86 -13.94 L15.72 -16.58 L11.83 -14.57 L0.34 -9.08 L-7.16 -7.59 L-10.28 -5.38 L1.94 -0.33" stroke="none" stroke-width="0" fill="#40c057" fill-rule="evenodd"></path><path fill="#2b8a3e" d="M 0.74,-1.49 Q 0.74,-1.49 2.20,-1.03 3.66,-0.58 4.59,0.66 5.53,1.90 6.29,2.76 7.05,3.62 8.63,5.25 10.22,6.89 12.01,8.09 13.80,9.30 16.00,11.21 18.20,13.13 20.22,14.45 22.25,15.76 24.55,17.71 26.84,19.66 28.91,21.00 30.99,22.33 33.11,23.53 35.24,24.73 36.61,25.17 37.98,25.60 40.54,26.46 43.10,27.31 45.54,28.34 47.97,29.37 50.81,30.40 53.64,31.44 56.55,31.83 59.45,32.21 62.22,33.08 64.99,33.94 67.78,34.24 70.57,34.54 73.04,34.68 75.51,34.82 77.82,34.88 80.12,34.95 82.37,34.98 84.63,35.01 87.15,35.70 89.66,36.38 91.70,36.62 93.73,36.85 95.85,36.95 97.97,37.05 100.14,37.09 102.30,37.13 104.49,37.15 106.67,37.17 108.23,37.17 109.79,37.18 111.02,37.19 112.25,37.21 114.36,36.32 116.47,35.43 117.73,35.29 119.00,35.15 117.91,33.17 116.83,31.19 115.78,30.63 114.74,30.06 113.24,28.07 111.75,26.07 110.06,24.19 108.36,22.30 107.00,20.85 105.63,19.40 103.99,18.32 102.35,17.25 100.18,15.36 98.00,13.47 95.50,12.25 93.01,11.04 90.57,9.81 88.13,8.59 85.10,6.75 82.08,4.91 79.61,3.55 77.15,2.18 74.84,0.98 72.54,-0.22 70.30,-1.37 68.06,-2.51 65.32,-3.58 62.59,-4.65 60.05,-5.78 57.52,-6.92 55.19,-8.03 52.85,-9.15 50.89,-9.52 48.94,-9.89 46.87,-10.07 44.80,-10.24 42.65,-10.33 40.50,-10.41 37.98,-11.13 35.46,-11.86 33.47,-12.09 31.48,-12.33 28.76,-12.44 26.05,-12.54 22.99,-12.60 19.94,-12.65 17.67,-12.09 15.41,-11.53 11.09,-10.73 6.78,-9.94 2.41,-9.22 -1.95,-8.49 -4.46,-7.54 -6.96,-6.58 -7.15,-6.56 -7.35,-6.54 -7.54,-6.57 -7.73,-6.59 -7.92,-6.66 -8.10,-6.74 -8.26,-6.85 -8.41,-6.96 -8.54,-7.11 -8.67,-7.26 -8.76,-7.43 -8.85,-7.60 -8.89,-7.79 -8.93,-7.98 -8.93,-8.18 -8.93,-8.37 -8.88,-8.56 -8.83,-8.75 -8.74,-8.92 -8.65,-9.09 -8.52,-9.24 -8.38,-9.38 -8.22,-9.49 -8.06,-9.60 -7.88,-9.67 -7.69,-9.73 -3.36,-5.30 0.97,-0.87 1.09,-0.69 1.20,-0.51 1.25,-0.31 1.30,-0.10 1.29,0.10 1.27,0.31 1.19,0.51 1.10,0.70 0.96,0.86 0.82,1.02 0.63,1.12 0.45,1.23 0.24,1.27 0.03,1.31 -0.17,1.28 -0.38,1.25 -0.57,1.16 -0.76,1.06 -0.91,0.91 -1.06,0.76 -1.16,0.57 -1.25,0.38 -1.28,0.17 -1.31,-0.03 -1.27,-0.24 -1.23,-0.45 -1.12,-0.63 -1.02,-0.82 -0.86,-0.96 -0.70,-1.10 -0.51,-1.19 -0.31,-1.27 -0.10,-1.29 0.10,-1.30 0.31,-1.25 0.51,-1.20 0.69,-1.09 0.87,-0.97 1.00,-0.81 1.14,-0.64 1.21,-0.44 1.28,-0.24 1.29,-0.03 1.30,0.17 1.23,0.38 1.17,0.58 1.05,0.75 0.92,0.92 0.75,1.05 0.58,1.17 0.38,1.23 0.17,1.30 -0.03,1.29 -0.24,1.28 -0.44,1.21 -0.64,1.14 -0.81,1.01 -0.97,0.87 -0.97,0.87 -0.97,0.87 -3.97,-2.85 -6.96,-6.58 -7.15,-6.56 -7.35,-6.54 -7.54,-6.57 -7.73,-6.59 -7.91,-6.66 -8.10,-6.74 -8.26,-6.85 -8.41,-6.96 -8.54,-7.11 -8.67,-7.26 -8.76,-7.43 -8.85,-7.60 -8.89,-7.79 -8.93,-7.98 -8.93,-8.18 -8.93,-8.37 -8.88,-8.56 -8.83,-8.75 -8.74,-8.92 -8.65,-9.09 -8.52,-9.24 -8.38,-9.38 -8.22,-9.49 -8.06,-9.60 -7.88,-9.67 -7.69,-9.73 -5.25,-10.90 -2.80,-12.07 1.49,-13.37 5.79,-14.67 9.99,-15.66 14.20,-16.64 17.09,-17.30 19.99,-17.96 23.13,-17.91 26.27,-17.86 29.22,-17.73 32.16,-17.59 34.57,-17.26 36.98,-16.93 38.87,-16.32 40.75,-15.70 43.01,-15.62 45.28,-15.54 47.65,-15.31 50.02,-15.09 52.56,-14.52 55.10,-13.96 57.40,-12.87 59.69,-11.77 62.12,-10.69 64.54,-9.61 67.51,-8.44 70.48,-7.26 72.75,-6.10 75.02,-4.95 77.37,-3.71 79.73,-2.47 82.29,-1.05 84.85,0.36 87.69,2.09 90.52,3.82 92.97,5.05 95.41,6.27 98.45,7.85 101.48,9.43 103.42,11.14 105.35,12.85 107.42,14.29 109.49,15.74 110.90,17.25 112.32,18.76 114.20,20.87 116.08,22.98 117.05,24.43 118.03,25.89 120.01,28.28 122.00,30.66 122.96,31.91 123.93,33.15 124.30,34.72 124.67,36.29 123.47,37.88 122.27,39.47 120.88,39.69 119.48,39.91 117.67,40.16 115.85,40.41 114.17,41.15 112.50,41.90 111.13,41.91 109.77,41.92 108.20,41.90 106.62,41.89 104.41,41.87 102.20,41.84 99.96,41.79 97.73,41.73 95.44,41.59 93.16,41.46 90.77,41.15 88.39,40.83 86.46,40.23 84.53,39.64 82.26,39.61 80.00,39.59 77.62,39.53 75.24,39.46 72.63,39.31 70.03,39.15 66.82,38.75 63.61,38.35 61.20,37.57 58.78,36.79 55.43,36.28 52.09,35.77 49.13,34.70 46.17,33.62 43.91,32.66 41.64,31.69 39.07,30.84 36.51,29.99 34.75,29.37 32.99,28.75 30.73,27.47 28.47,26.20 26.16,24.68 23.85,23.17 21.79,21.39 19.72,19.61 17.44,18.10 15.16,16.59 13.17,14.83 11.18,13.07 9.06,11.57 6.93,10.07 5.26,8.31 3.59,6.56 2.49,4.83 1.39,3.11 0.32,2.30 -0.74,1.49 -0.91,1.38 -1.08,1.27 -1.21,1.12 -1.35,0.97 -1.45,0.79 -1.54,0.62 -1.60,0.42 -1.65,0.23 -1.65,0.03 -1.66,-0.16 -1.61,-0.36 -1.57,-0.56 -1.48,-0.74 -1.39,-0.92 -1.26,-1.07 -1.13,-1.22 -0.96,-1.34 -0.80,-1.46 -0.61,-1.53 -0.43,-1.61 -0.23,-1.64 -0.03,-1.66 0.16,-1.64 0.36,-1.62 0.55,-1.56 0.74,-1.49 0.74,-1.49 L 0.74,-1.49 Z"></path></g><g transform="translate(299.477414548758 207.7696091496391) rotate(0 61.54570712292001 -30.77285356146001)" stroke="none"><path d="M-0.32 -1.01 L2.75 -0.01 L4.7 0.55 L6.78 -1.21 L10.73 0.96 L11.49 0.7 L14 -1.69 L13.9 0.01 L16.15 1.12 L16.48 1.41 L21.05 0.25 L23.92 -0.05 L25.61 0.95 L25.91 1.08 L28.56 -1.18 L30.02 0.58 L34.43 -2.32 L37.58 -1.55 L43.01 -1.72 L47.4 -0.36 L47.9 -2.83 L53.48 -3.11 L56.51 -0.53 L62.27 -0.5 L65.31 -5.52 L64.82 -3.06 L68.96 -5.74 L73.02 -6.51 L75.56 -8.94 L79.78 -10.43 L87.04 -12.51 L91.44 -14.22 L90.35 -13.64 L97.97 -18.48 L98.66 -16.58 L99.14 -21.48 L104.38 -23.97 L104.58 -25.66 L107.93 -25.5 L109.32 -28.53 L111.15 -30.67 L116.02 -31.41 L115.52 -34.62 L118.97 -37.24 L122.15 -38.09 L124.07 -42.58 L121.55 -43.47 L126.68 -43.44 L126.47 -44.58 L128.34 -48.02 L130.7 -51.43 L133.45 -51.57 L135.62 -53.08 L132.62 -57.17 L134.67 -58.41 L135.69 -59.3 L132.1 -59.74 L125.92 -62.48 L126.78 -61.19 L121.2 -60.46 L114.61 -62.72 L108.04 -61 L101.71 -57.51 L92.97 -61.11 L84.64 -56.75 L71.97 -53.59 L65.17 -52.9 L53.8 -51.09 L48.29 -48.4 L37.69 -45.67 L33.83 -45.12 L24.67 -40.84 L19.85 -36.39 L15.41 -34.11 L12 -27.32 L3.98 -19.83 L-3.4 -10.09 L-10.09 -7.16 L-13.03 -4.85 L-0.49 1.12" stroke="none" stroke-width="0" fill="#40c057" fill-rule="evenodd"></path><path fill="#2b8a3e" d="M 1.13,-1.68 Q 1.13,-1.68 1.89,-1.87 3.79,-2.06 5.22,-2.08 6.66,-2.11 7.90,-2.12 9.15,-2.13 10.31,-2.14 11.47,-2.15 12.59,-2.18 13.72,-2.22 15.03,-2.23 16.34,-2.24 18.38,-2.24 20.42,-2.25 21.50,-2.25 22.58,-2.25 23.67,-2.26 24.76,-2.26 25.86,-2.26 26.95,-2.26 28.02,-2.26 29.10,-2.26 30.46,-2.83 31.83,-3.41 33.36,-3.73 34.90,-4.05 36.90,-4.18 38.89,-4.32 40.98,-4.37 43.07,-4.42 44.59,-4.44 46.10,-4.46 48.01,-4.47 49.93,-4.48 52.00,-4.48 54.08,-4.49 56.19,-4.48 58.30,-4.48 59.45,-5.03 60.59,-5.59 62.07,-5.92 63.55,-6.26 65.16,-6.95 66.78,-7.63 68.36,-8.00 69.94,-8.38 71.63,-9.09 73.31,-9.80 75.61,-10.21 77.91,-10.61 79.84,-11.34 81.76,-12.07 83.85,-13.01 85.93,-13.95 87.31,-14.90 88.68,-15.84 90.69,-16.97 92.70,-18.10 94.36,-18.64 96.02,-19.19 96.97,-19.88 97.92,-20.57 98.97,-21.48 100.01,-22.38 101.09,-23.40 102.17,-24.42 103.25,-25.48 104.34,-26.55 105.43,-27.63 106.53,-28.72 107.62,-29.82 108.71,-30.91 109.81,-32.01 110.91,-33.11 112.00,-34.21 113.10,-35.31 114.20,-36.41 115.29,-37.51 116.39,-38.61 117.48,-39.72 118.56,-40.79 119.64,-41.86 121.22,-43.66 122.81,-45.47 124.60,-47.11 126.39,-48.75 127.43,-49.75 128.46,-50.76 129.62,-52.80 130.79,-54.84 131.87,-56.12 132.96,-57.40 131.11,-57.91 129.25,-58.43 128.08,-58.56 126.91,-58.69 125.20,-58.75 123.48,-58.81 120.85,-58.83 118.21,-58.86 115.83,-58.87 113.44,-58.89 110.80,-58.29 108.16,-57.69 104.22,-57.40 100.27,-57.10 95.62,-56.37 90.97,-55.64 85.82,-54.70 80.67,-53.75 75.98,-52.73 71.30,-51.70 66.78,-50.64 62.26,-49.57 58.49,-48.50 54.73,-47.43 50.55,-46.33 46.37,-45.23 42.75,-44.14 39.14,-43.06 35.90,-41.41 32.65,-39.77 29.20,-38.36 25.75,-36.95 23.30,-35.24 20.85,-33.52 18.56,-31.56 16.26,-29.59 13.48,-26.34 10.69,-23.09 7.48,-19.24 4.26,-15.39 0.00,-12.50 -4.24,-9.60 -6.59,-7.80 -8.93,-6.01 -9.08,-5.92 -9.23,-5.83 -9.40,-5.78 -9.57,-5.72 -9.75,-5.72 -9.93,-5.71 -10.10,-5.74 -10.28,-5.78 -10.44,-5.85 -10.60,-5.93 -10.74,-6.04 -10.88,-6.15 -10.99,-6.29 -11.10,-6.43 -11.17,-6.59 -11.24,-6.76 -11.27,-6.93 -11.30,-7.11 -11.29,-7.29 -11.27,-7.46 -11.22,-7.63 -11.16,-7.80 -11.07,-7.95 -10.98,-8.10 -10.85,-8.23 -10.72,-8.35 -4.97,-4.70 0.77,-1.06 0.92,-0.90 1.07,-0.75 1.16,-0.56 1.25,-0.37 1.28,-0.16 1.31,0.04 1.27,0.25 1.22,0.46 1.12,0.64 1.01,0.83 0.85,0.97 0.69,1.11 0.50,1.19 0.30,1.27 0.09,1.29 -0.11,1.30 -0.32,1.25 -0.52,1.20 -0.70,1.08 -0.88,0.97 -1.01,0.80 -1.14,0.63 -1.22,0.43 -1.29,0.23 -1.29,0.02 -1.29,-0.18 -1.23,-0.39 -1.17,-0.59 -1.04,-0.76 -0.92,-0.93 -0.74,-1.05 -0.57,-1.18 -0.36,-1.24 -0.16,-1.30 0.04,-1.29 0.25,-1.28 0.45,-1.21 0.65,-1.13 0.82,-1.00 0.98,-0.86 1.09,-0.68 1.21,-0.50 1.26,-0.30 1.30,-0.09 1.29,0.11 1.27,0.32 1.18,0.52 1.10,0.71 0.95,0.87 0.81,1.03 0.62,1.13 0.44,1.23 0.23,1.27 0.02,1.31 -0.18,1.28 -0.39,1.25 -0.58,1.15 -0.77,1.06 -0.77,1.06 -0.77,1.06 -4.85,-2.47 -8.93,-6.01 -9.08,-5.92 -9.23,-5.83 -9.40,-5.78 -9.57,-5.72 -9.75,-5.72 -9.93,-5.71 -10.10,-5.74 -10.28,-5.78 -10.44,-5.85 -10.60,-5.93 -10.74,-6.04 -10.88,-6.15 -10.99,-6.29 -11.10,-6.43 -11.17,-6.59 -11.24,-6.76 -11.27,-6.93 -11.30,-7.11 -11.29,-7.29 -11.27,-7.46 -11.22,-7.63 -11.16,-7.80 -11.07,-7.95 -10.98,-8.10 -10.85,-8.23 -10.72,-8.35 -8.52,-10.33 -6.31,-12.30 -2.85,-15.31 0.61,-18.32 3.66,-22.42 6.72,-26.51 9.78,-30.06 12.83,-33.60 15.35,-35.73 17.87,-37.87 20.81,-39.84 23.75,-41.81 27.02,-43.14 30.30,-44.47 33.96,-46.28 37.62,-48.09 41.32,-49.20 45.03,-50.31 49.16,-51.40 53.29,-52.49 57.17,-53.60 61.05,-54.70 65.61,-55.78 70.17,-56.85 74.94,-57.90 79.72,-58.95 84.93,-59.90 90.15,-60.85 95.02,-61.61 99.89,-62.37 103.48,-62.61 107.06,-62.85 110.25,-63.51 113.44,-64.16 115.85,-64.15 118.27,-64.14 120.97,-64.12 123.67,-64.09 125.59,-64.02 127.52,-63.95 128.96,-63.78 130.40,-63.61 132.55,-62.93 134.71,-62.25 135.99,-60.14 137.28,-58.04 136.64,-56.37 136.00,-54.70 135.46,-53.27 134.92,-51.83 134.23,-50.98 133.54,-50.14 132.82,-48.69 132.11,-47.24 130.99,-46.14 129.86,-45.05 128.76,-44.02 127.66,-42.99 126.08,-42.04 124.50,-41.09 123.89,-39.75 123.29,-38.40 122.17,-37.28 121.04,-36.16 119.94,-35.06 118.84,-33.96 117.73,-32.87 116.63,-31.77 115.53,-30.68 114.43,-29.58 113.33,-28.48 112.22,-27.39 111.11,-26.29 110.01,-25.20 108.89,-24.10 107.78,-23.01 106.64,-21.92 105.51,-20.83 104.33,-19.75 103.16,-18.66 101.88,-17.60 100.60,-16.54 99.05,-15.58 97.51,-14.62 96.27,-14.25 95.03,-13.88 93.19,-12.87 91.35,-11.85 89.61,-10.71 87.88,-9.58 85.62,-8.60 83.36,-7.62 81.01,-6.81 78.66,-6.00 76.85,-5.75 75.05,-5.51 73.01,-4.69 70.98,-3.86 69.75,-3.60 68.53,-3.34 66.52,-2.53 64.51,-1.73 63.42,-1.52 62.33,-1.32 60.38,-0.61 58.44,0.08 56.26,0.09 54.09,0.10 52.02,0.11 49.95,0.11 48.05,0.12 46.16,0.13 44.67,0.15 43.18,0.17 41.18,0.22 39.17,0.26 37.48,0.35 35.78,0.44 34.58,0.66 33.39,0.88 31.29,1.57 29.19,2.26 28.07,2.26 26.95,2.26 25.86,2.26 24.76,2.26 23.67,2.26 22.58,2.25 21.50,2.25 20.42,2.25 18.38,2.24 16.34,2.24 15.03,2.23 13.72,2.22 12.59,2.18 11.47,2.15 10.31,2.14 9.15,2.13 7.90,2.12 6.66,2.11 5.22,2.08 3.79,2.06 1.89,1.87 -1.13,1.68 -0.20,1.65 -0.40,1.63 -0.59,1.56 -0.78,1.48 -0.94,1.37 -1.11,1.25 -1.25,1.10 -1.38,0.95 -1.47,0.77 -1.57,0.59 -1.62,0.39 -1.67,0.20 -1.67,-0.00 -1.67,-0.20 -1.62,-0.39 -1.57,-0.59 -1.47,-0.77 -1.38,-0.95 -1.25,-1.10 -1.11,-1.25 -0.94,-1.37 -0.78,-1.48 -0.59,-1.56 -0.40,-1.63 -0.20,-1.65 0.00,-1.68 0.00,-1.68 L 1.13,-1.68 Z"></path></g><g transform="translate(266.3113652919804 210.617022443348) rotate(0 11.485707391794811 -94.18280061271679)" stroke="none"><path d="M1.99 -1.51 L1.67 -1.93 L2.71 -2.8 L-0.44 -4.43 L2.82 -4.94 L-0.05 -5.99 L2.59 -9.52 L1.77 -13.99 L3.15 -16.04 L3.85 -22.99 L1.52 -28.37 L2.82 -36.16 L4.51 -42.15 L2.26 -53.76 L1.89 -58 L2.61 -68.05 L4.28 -74.8 L1.14 -83.69 L3.15 -89.91 L0.56 -99.23 L-0.61 -109.08 L0.43 -114.55 L-1.25 -121.83 L0.21 -128.35 L-2.66 -137.12 L-2.85 -144.31 L-6.33 -148.3 L-4.54 -152.97 L-5.87 -159.54 L-7.8 -162.76 L-5.09 -171.06 L-9.21 -172.94 L-10.38 -180.73 L-10.95 -185.64 L-10.69 -186.78 L-8.85 -188.29 L-11.63 -189.04 L-12.34 -191.42 L-11.53 -192.61 L-7.9 -190.26 L-4.55 -190.39 L1.3 -191.51 L6.2 -192.86 L15.42 -194.22 L21.54 -197.65 L24.39 -198.75 L29.59 -201.87 L35.58 -201.86 L34.96 -199.9 L36.25 -200.65 L36.65 -197.59 L34.2 -194.16 L36.62 -191.61 L36.5 -181.19 L34.61 -175.03 L35.09 -166.12 L36.75 -157.87 L36.27 -150.61 L33.99 -144.06 L35.2 -135.8 L30.74 -126.26 L32.46 -121.99 L33.78 -116.2 L29.49 -107.05 L31.65 -101.16 L31.62 -99.09 L27.89 -93.64 L29.96 -89.68 L28.39 -83.78 L28.15 -82.15 L30.37 -79.65 L27.58 -75.28 L30.95 -72.73 L28.03 -69.74 L28.09 -66.3 L28.24 -60.48 L26.72 -56.62 L28.73 -53.52 L29.56 -52.28 L24.41 -46.06 L25.69 -43.24 L25.14 -42.76 L25.64 -37.32 L25.05 -36.65 L26.3 -30.74 L21.22 -29.12 L22.36 -25.61 L19.58 -23.48 L19.48 -19.85 L21.98 -18.82 L20.14 -14.77 L20.02 -9.67 L17.21 -8.7 L18.78 -7.52 L14.88 -3.13 L13.67 0.95 L9.83 0.42 L8.04 3.5 L7.57 3.11 L3.6 7.16 L4.96 7.27 L1.38 9.06 L0.27 10.82 L-0.17 11.84 L-0.93 10.16 L-1.73 -0.38" stroke="none" stroke-width="0" fill="#40c057" fill-rule="evenodd"></path><path fill="#2b8a3e" d="M -1.64,-0.54 Q -1.64,-0.54 -1.69,-2.03 -1.74,-3.51 -1.57,-5.47 -1.39,-7.42 -1.37,-9.24 -1.35,-11.06 -1.34,-12.73 -1.34,-14.40 -0.87,-16.72 -0.40,-19.04 -0.25,-21.89 -0.11,-24.74 -0.04,-28.19 0.01,-31.64 0.03,-34.87 0.05,-38.10 0.05,-42.11 0.06,-46.13 0.06,-50.04 0.06,-53.94 0.06,-57.81 0.05,-61.67 0.05,-65.51 0.05,-69.35 -0.37,-73.02 -0.80,-76.68 -1.00,-80.61 -1.19,-84.54 -1.70,-88.70 -2.21,-92.86 -2.44,-96.98 -2.67,-101.09 -3.19,-105.34 -3.72,-109.59 -3.95,-113.29 -4.19,-116.99 -4.28,-120.78 -4.38,-124.56 -4.85,-127.74 -5.32,-130.92 -5.53,-134.22 -5.75,-137.52 -6.26,-140.48 -6.77,-143.44 -7.01,-146.21 -7.25,-148.98 -7.35,-151.49 -7.45,-154.00 -7.91,-156.61 -8.36,-159.21 -8.59,-162.31 -8.81,-165.41 -9.31,-167.79 -9.81,-170.17 -10.46,-172.99 -11.11,-175.81 -11.42,-178.03 -11.73,-180.24 -12.19,-181.21 -12.65,-182.17 -12.97,-183.41 -13.28,-184.65 -13.70,-185.92 -14.12,-187.19 -13.73,-189.86 -13.35,-192.53 -12.41,-193.11 -11.47,-193.69 -9.38,-193.93 -7.30,-194.17 -5.50,-194.62 -3.69,-195.07 -0.58,-195.71 2.52,-196.34 5.56,-197.03 8.60,-197.72 12.14,-198.44 15.68,-199.17 18.41,-199.91 21.15,-200.64 23.63,-201.39 26.10,-202.14 28.23,-202.51 30.35,-202.87 31.94,-202.96 33.52,-203.04 34.85,-202.36 36.18,-201.68 36.82,-200.54 37.47,-199.39 37.65,-197.90 37.84,-196.40 37.89,-194.51 37.95,-192.62 37.97,-189.63 38.00,-186.64 38.02,-183.61 38.03,-180.58 38.05,-176.66 38.06,-172.73 38.07,-168.86 38.08,-164.99 38.08,-160.70 38.08,-156.41 37.63,-152.65 37.18,-148.90 37.00,-145.28 36.82,-141.65 36.29,-137.33 35.77,-133.00 35.56,-129.53 35.35,-126.06 35.26,-123.27 35.17,-120.47 34.67,-116.92 34.18,-113.36 33.99,-110.26 33.79,-107.16 33.71,-104.52 33.62,-101.88 33.12,-99.19 32.61,-96.51 32.43,-94.70 32.25,-92.90 32.17,-90.85 32.09,-88.80 32.06,-87.04 32.02,-85.28 32.02,-83.22 32.02,-81.15 32.02,-79.39 32.02,-77.63 32.02,-75.99 32.02,-74.35 31.52,-72.40 31.03,-70.45 30.89,-68.72 30.75,-66.98 30.67,-64.90 30.60,-62.82 30.57,-61.04 30.54,-59.27 30.53,-57.63 30.52,-56.00 30.52,-54.41 30.52,-52.83 30.03,-50.89 29.54,-48.95 29.40,-47.64 29.26,-46.32 29.19,-44.88 29.11,-43.44 28.58,-41.55 28.05,-39.67 27.90,-38.38 27.75,-37.09 27.68,-35.66 27.60,-34.23 27.06,-32.35 26.52,-30.47 25.77,-27.94 25.02,-25.40 24.89,-24.26 24.75,-23.12 24.69,-21.75 24.62,-20.38 24.11,-18.16 23.60,-15.94 23.44,-14.39 23.27,-12.84 22.63,-11.23 21.99,-9.63 21.31,-8.21 20.63,-6.78 19.28,-5.04 17.94,-3.29 17.08,-1.92 16.22,-0.55 14.62,0.84 13.03,2.25 12.08,3.10 11.14,3.95 10.30,4.75 9.47,5.54 8.67,6.32 7.88,7.10 7.12,7.87 6.35,8.63 5.79,9.59 5.23,10.54 2.18,12.15 -0.85,13.77 -1.08,6.90 -1.31,0.04 -1.28,-0.16 -1.25,-0.37 -1.16,-0.56 -1.07,-0.76 -0.92,-0.91 -0.77,-1.06 -0.58,-1.15 -0.39,-1.25 -0.18,-1.28 0.02,-1.31 0.23,-1.27 0.44,-1.23 0.63,-1.13 0.81,-1.02 0.95,-0.87 1.10,-0.71 1.18,-0.51 1.27,-0.32 1.29,-0.11 1.30,0.09 1.25,0.30 1.20,0.51 1.09,0.69 0.98,0.87 0.81,1.00 0.65,1.13 0.45,1.21 0.25,1.28 0.04,1.29 -0.17,1.30 -0.37,1.24 -0.57,1.17 -0.75,1.05 -0.92,0.93 -1.04,0.76 -1.17,0.58 -1.23,0.38 -1.30,0.18 -1.29,-0.02 -1.29,-0.24 -1.21,-0.44 -1.14,-0.64 -1.01,-0.80 -0.88,-0.97 -0.70,-1.08 -0.52,-1.20 -0.31,-1.25 -0.11,-1.30 0.09,-1.29 0.31,-1.27 0.50,-1.19 0.70,-1.11 0.86,-0.96 1.01,-0.82 1.12,-0.64 1.23,-0.45 1.27,-0.25 1.31,-0.04 1.31,-0.04 1.31,-0.04 1.94,4.74 2.56,9.53 0.96,9.54 -0.63,9.56 -0.25,8.44 0.11,7.31 1.09,5.85 2.08,4.38 2.88,3.59 3.68,2.81 4.49,2.01 5.31,1.21 6.19,0.36 7.08,-0.48 8.09,-1.43 9.11,-2.38 10.08,-3.13 11.04,-3.88 12.05,-5.52 13.06,-7.16 14.04,-8.34 15.02,-9.53 16.08,-11.59 17.14,-13.66 17.38,-15.53 17.62,-17.40 18.08,-19.10 18.53,-20.79 18.65,-22.41 18.78,-24.04 19.09,-25.80 19.41,-27.57 19.87,-28.65 20.33,-29.73 20.57,-30.99 20.82,-32.24 21.23,-33.42 21.65,-34.61 21.74,-36.24 21.84,-37.87 22.10,-39.65 22.35,-41.42 22.77,-42.60 23.18,-43.79 23.27,-45.42 23.36,-47.04 23.59,-48.81 23.83,-50.57 24.22,-51.74 24.62,-52.91 24.63,-54.48 24.65,-56.05 24.66,-57.71 24.68,-59.38 24.72,-61.20 24.76,-63.03 24.84,-65.28 24.93,-67.53 25.16,-69.77 25.40,-72.02 25.79,-73.22 26.18,-74.42 26.18,-76.04 26.18,-77.66 26.20,-79.43 26.22,-81.20 26.24,-83.30 26.27,-85.40 26.31,-87.22 26.35,-89.03 26.44,-91.27 26.54,-93.50 26.76,-95.55 26.98,-97.60 27.43,-99.83 27.88,-102.07 27.97,-104.80 28.06,-107.53 28.27,-110.84 28.49,-114.16 28.95,-117.41 29.42,-120.67 29.52,-123.54 29.62,-126.41 29.85,-130.06 30.08,-133.70 30.59,-137.82 31.11,-141.94 31.30,-145.77 31.49,-149.59 31.92,-153.00 32.35,-156.41 32.35,-160.70 32.35,-164.98 32.36,-168.85 32.37,-172.72 32.37,-176.65 32.38,-180.57 32.38,-183.59 32.38,-186.61 32.37,-189.55 32.37,-192.49 31.81,-194.95 31.26,-197.40 29.48,-197.11 27.71,-196.83 25.15,-196.05 22.60,-195.28 19.72,-194.50 16.84,-193.72 13.37,-192.96 9.90,-192.20 6.81,-191.45 3.73,-190.70 0.72,-190.03 -2.28,-189.36 -4.53,-188.81 -6.78,-188.26 -8.66,-188.13 -10.54,-188.00 -9.74,-189.10 -8.95,-190.20 -8.28,-188.87 -7.62,-187.53 -7.37,-186.01 -7.12,-184.49 -6.47,-182.79 -5.81,-181.10 -5.55,-179.13 -5.29,-177.16 -4.61,-174.27 -3.94,-171.37 -3.38,-168.60 -2.83,-165.83 -2.64,-163.03 -2.46,-160.22 -1.95,-157.23 -1.45,-154.24 -1.36,-151.86 -1.27,-149.48 -1.06,-146.96 -0.85,-144.44 -0.30,-141.17 0.23,-137.90 0.42,-134.84 0.61,-131.77 1.11,-128.25 1.60,-124.72 1.70,-121.04 1.79,-117.36 2.01,-113.84 2.23,-110.32 2.78,-105.87 3.32,-101.42 3.53,-97.51 3.75,-93.59 4.28,-89.21 4.81,-84.83 4.99,-81.10 5.16,-77.37 5.61,-73.36 6.06,-69.35 6.06,-65.51 6.05,-61.66 6.05,-57.80 6.04,-53.93 6.03,-50.02 6.02,-46.11 5.99,-42.07 5.96,-38.04 5.92,-34.77 5.87,-31.50 5.77,-27.94 5.67,-24.38 5.44,-21.10 5.20,-17.82 4.78,-16.07 4.36,-14.32 4.33,-12.64 4.31,-10.95 4.27,-9.02 4.22,-7.08 4.11,-5.61 4.00,-4.13 3.75,-2.95 3.50,-1.77 2.57,-0.61 1.64,0.54 1.55,0.73 1.46,0.92 1.33,1.08 1.20,1.25 1.03,1.37 0.86,1.50 0.67,1.58 0.48,1.66 0.27,1.70 0.07,1.73 -0.13,1.71 -0.34,1.70 -0.54,1.63 -0.74,1.56 -0.92,1.45 -1.09,1.34 -1.24,1.19 -1.38,1.04 -1.49,0.86 -1.59,0.68 -1.65,0.48 -1.71,0.27 -1.72,0.07 -1.73,-0.13 -1.68,-0.34 -1.64,-0.54 -1.64,-0.54 L -1.64,-0.54 Z"></path></g><g transform="translate(110.19722985589465 365.6712974118094) rotate(0 228.515625 93.59999999999997)"><text x="0" y="0" font-family="Cascadia, Segoe UI Emoji" font-size="156.00994693292526px" fill="#5c940d" text-anchor="start" style="white-space: pre;" direction="ltr" dominant-baseline="text-before-edge">25:00</text></g></svg>